<svg xmlns="http://www.w3.org/2000/svg" viewBox="0 0 512 512" role="img" aria-label="Resenha">
  <rect width="512" height="512" rx="96" fill="#071710"/>
  <circle cx="256" cy="256" r="148" fill="#7cff4f"/>
  <path fill="#071710" d="M256 120a136 136 0 1 0 0 272 136 136 0 0 0 0-272Zm0 48 52 38-20 62h-64l-20-62 52-38Zm-92 146 44-32 52 38-20 62a116 116 0 0 1-76-68Zm184 0a116 116 0 0 1-76 68l-20-62 52-38 44 32Zm-60-72 20-62a116 116 0 0 1 48 80l-52 38-16-56Zm-84 0-16 56-52-38a116 116 0 0 1 48-80l20 62Z"/>
</svg>
